<svg width="238" height="99" viewBox="0 0 238 99" fill="none" xmlns="http://www.w3.org/2000/svg">
<path d="M9.38 91H11.9L8.72 85.56C10.36 84.9 11.5 83.3 11.5 81.5C11.5 79 9.5 77 7 77H1.4V91H3.7V85.9H6.42L9.38 91ZM3.7 79.16H7C8.22 79.16 9.2 80.18 9.2 81.5C9.2 82.8 8.22 83.84 7 83.84H3.7V79.16ZM19.1856 80.74C17.6256 80.74 16.4456 81.38 15.6856 82.44V81H13.5256V95H15.6856V89.58C16.4456 90.62 17.6256 91.26 19.1856 91.26C21.9056 91.26 24.1656 88.98 24.1656 86C24.1656 83.04 21.9056 80.74 19.1856 80.74ZM18.8456 89.2C17.0456 89.2 15.6856 87.86 15.6856 86C15.6856 84.14 17.0456 82.8 18.8456 82.8C20.6456 82.8 22.0056 84.14 22.0056 86C22.0056 87.86 20.6456 89.2 18.8456 89.2ZM30.4833 91H39.7033V88.78H33.9033L37.0633 85.62C38.4033 84.26 39.4433 82.8 39.4433 81.06C39.4433 78.28 37.2633 76.74 34.9633 76.74C33.1033 76.74 31.3433 77.66 30.4433 79.58L32.3833 80.72C32.9233 79.6 33.8233 78.98 34.9833 78.98C36.1833 78.98 37.1433 79.74 37.1433 81.14C37.1433 82.2 36.3633 83.22 35.3633 84.22L30.4833 89.2V91ZM43.0092 91.24C43.8292 91.24 44.5092 90.56 44.5092 89.74C44.5092 88.9 43.8292 88.24 43.0092 88.24C42.1692 88.24 41.5092 88.9 41.5092 89.74C41.5092 90.56 42.1692 91.24 43.0092 91.24ZM51.0469 82.28H49.2869L49.5269 79.16H55.2069V77H47.4069L46.8669 84.52H50.9469C52.4669 84.52 53.5069 85.36 53.5069 86.76C53.5069 88.16 52.4669 89.02 50.9069 89.02C49.4469 89.02 48.4869 88.36 48.1269 87.12L46.1469 88.26C46.8869 90.28 48.7869 91.26 50.9069 91.26C53.4869 91.26 55.8069 89.7 55.8069 86.76C55.8069 83.84 53.5869 82.28 51.0469 82.28ZM62.5891 91.26C66.1091 91.26 68.0891 88.32 68.0891 84C68.0891 79.68 66.1091 76.74 62.5891 76.74C59.0691 76.74 57.0891 79.68 57.0891 84C57.0891 88.32 59.0691 91.26 62.5891 91.26ZM62.5891 89.02C60.5291 89.02 59.3891 87.22 59.3891 84C59.3891 80.78 60.5291 78.98 62.5891 78.98C64.6691 78.98 65.7891 80.78 65.7891 84C65.7891 87.22 64.6691 89.02 62.5891 89.02ZM75.1867 91.26C78.7067 91.26 80.6867 88.32 80.6867 84C80.6867 79.68 78.7067 76.74 75.1867 76.74C71.6667 76.74 69.6867 79.68 69.6867 84C69.6867 88.32 71.6667 91.26 75.1867 91.26ZM75.1867 89.02C73.1267 89.02 71.9867 87.22 71.9867 84C71.9867 80.78 73.1267 78.98 75.1867 78.98C77.2667 78.98 78.3867 80.78 78.3867 84C78.3867 87.22 77.2667 89.02 75.1867 89.02ZM83.4389 91.24C84.2589 91.24 84.9389 90.56 84.9389 89.74C84.9389 88.9 84.2589 88.24 83.4389 88.24C82.5989 88.24 81.9389 88.9 81.9389 89.74C81.9389 90.56 82.5989 91.24 83.4389 91.24ZM91.6711 91.26C95.1911 91.26 97.1711 88.32 97.1711 84C97.1711 79.68 95.1911 76.74 91.6711 76.74C88.1511 76.74 86.1711 79.68 86.1711 84C86.1711 88.32 88.1511 91.26 91.6711 91.26ZM91.6711 89.02C89.6111 89.02 88.4711 87.22 88.4711 84C88.4711 80.78 89.6111 78.98 91.6711 78.98C93.7511 78.98 94.8711 80.78 94.8711 84C94.8711 87.22 93.7511 89.02 91.6711 89.02ZM104.269 91.26C107.789 91.26 109.769 88.32 109.769 84C109.769 79.68 107.789 76.74 104.269 76.74C100.749 76.74 98.7688 79.68 98.7688 84C98.7688 88.32 100.749 91.26 104.269 91.26ZM104.269 89.02C102.209 89.02 101.069 87.22 101.069 84C101.069 80.78 102.209 78.98 104.269 78.98C106.349 78.98 107.469 80.78 107.469 84C107.469 87.22 106.349 89.02 104.269 89.02ZM116.866 91.26C120.386 91.26 122.366 88.32 122.366 84C122.366 79.68 120.386 76.74 116.866 76.74C113.346 76.74 111.366 79.68 111.366 84C111.366 88.32 113.346 91.26 116.866 91.26ZM116.866 89.02C114.806 89.02 113.666 87.22 113.666 84C113.666 80.78 114.806 78.98 116.866 78.98C118.946 78.98 120.066 80.78 120.066 84C120.066 87.22 118.946 89.02 116.866 89.02Z" fill="#3A3A3A"/>
<path d="M148.16 89H149.44L146.704 84.376C148.096 83.976 149.12 82.68 149.12 81.16C149.12 79.304 147.616 77.8 145.76 77.8H141.28V89H142.4V84.52H145.536L148.16 89ZM142.4 78.856H145.76C146.992 78.856 148 79.88 148 81.16C148 82.424 146.992 83.464 145.76 83.464H142.4V78.856ZM155.174 80.808C153.75 80.808 152.614 81.496 151.942 82.568V81H150.886V92.2H151.942V87.432C152.614 88.504 153.75 89.192 155.174 89.192C157.43 89.192 159.302 87.368 159.302 85C159.302 82.632 157.43 80.808 155.174 80.808ZM155.094 88.168C153.318 88.168 151.942 86.776 151.942 85C151.942 83.224 153.318 81.832 155.094 81.832C156.87 81.832 158.246 83.224 158.246 85C158.246 86.776 156.87 88.168 155.094 88.168ZM168.69 82.456L171.298 78.856V77.8H164.738V78.856H170.002L167.218 82.664L167.698 83.4H168.002L168.018 83.384V83.4C169.474 83.4 170.658 84.2 170.658 85.752C170.658 87.304 169.474 88.104 168.018 88.104C166.738 88.104 165.714 87.56 165.346 86.424L164.418 86.968C164.962 88.44 166.402 89.192 168.018 89.192C169.986 89.192 171.778 87.976 171.778 85.752C171.778 83.784 170.37 82.68 168.69 82.456ZM173.949 89.16C174.445 89.16 174.829 88.776 174.829 88.28C174.829 87.784 174.445 87.4 173.949 87.4C173.453 87.4 173.069 87.784 173.069 88.28C173.069 88.776 173.453 89.16 173.949 89.16ZM180.037 82.312H178.149L178.389 78.856H183.397V77.8H177.397L176.997 83.4H180.037C181.493 83.4 182.677 84.2 182.677 85.752C182.677 87.304 181.493 88.104 180.037 88.104C178.757 88.104 177.701 87.496 177.381 86.264L176.437 86.808C176.933 88.392 178.421 89.192 180.037 89.192C182.005 89.192 183.797 87.976 183.797 85.752C183.797 83.528 182.005 82.312 180.037 82.312ZM189.321 89.192C192.057 89.192 193.561 86.856 193.561 83.4C193.561 79.944 192.057 77.608 189.321 77.608C186.585 77.608 185.081 79.944 185.081 83.4C185.081 86.856 186.585 89.192 189.321 89.192ZM189.321 88.104C187.353 88.104 186.201 86.392 186.201 83.4C186.201 80.408 187.353 78.696 189.321 78.696C191.289 78.696 192.441 80.408 192.441 83.4C192.441 86.392 191.289 88.104 189.321 88.104ZM199.399 89.192C202.135 89.192 203.639 86.856 203.639 83.4C203.639 79.944 202.135 77.608 199.399 77.608C196.663 77.608 195.159 79.944 195.159 83.4C195.159 86.856 196.663 89.192 199.399 89.192ZM199.399 88.104C197.431 88.104 196.279 86.392 196.279 83.4C196.279 80.408 197.431 78.696 199.399 78.696C201.367 78.696 202.519 80.408 202.519 83.4C202.519 86.392 201.367 88.104 199.399 88.104ZM205.793 89.16C206.289 89.16 206.673 88.776 206.673 88.28C206.673 87.784 206.289 87.4 205.793 87.4C205.297 87.4 204.913 87.784 204.913 88.28C204.913 88.776 205.297 89.16 205.793 89.16ZM212.196 89.192C214.932 89.192 216.436 86.856 216.436 83.4C216.436 79.944 214.932 77.608 212.196 77.608C209.46 77.608 207.956 79.944 207.956 83.4C207.956 86.856 209.46 89.192 212.196 89.192ZM212.196 88.104C210.228 88.104 209.076 86.392 209.076 83.4C209.076 80.408 210.228 78.696 212.196 78.696C214.164 78.696 215.316 80.408 215.316 83.4C215.316 86.392 214.164 88.104 212.196 88.104ZM222.274 89.192C225.01 89.192 226.514 86.856 226.514 83.4C226.514 79.944 225.01 77.608 222.274 77.608C219.538 77.608 218.034 79.944 218.034 83.4C218.034 86.856 219.538 89.192 222.274 89.192ZM222.274 88.104C220.306 88.104 219.154 86.392 219.154 83.4C219.154 80.408 220.306 78.696 222.274 78.696C224.242 78.696 225.394 80.408 225.394 83.4C225.394 86.392 224.242 88.104 222.274 88.104ZM232.353 89.192C235.089 89.192 236.593 86.856 236.593 83.4C236.593 79.944 235.089 77.608 232.353 77.608C229.617 77.608 228.113 79.944 228.113 83.4C228.113 86.856 229.617 89.192 232.353 89.192ZM232.353 88.104C230.385 88.104 229.233 86.392 229.233 83.4C229.233 80.408 230.385 78.696 232.353 78.696C234.321 78.696 235.473 80.408 235.473 83.4C235.473 86.392 234.321 88.104 232.353 88.104Z" fill="#B0B0B0"/>
<path d="M140 84.2H237.393V85H140V84.2Z" fill="#B0B0B0"/>
<path d="M7.272 23.312C10.776 23.312 13.224 21.44 13.224 18.368C13.224 15.032 10.416 14.168 7.632 13.28C5.184 12.512 4.248 11.96 4.248 10.664C4.248 9.392 5.28 8.576 6.888 8.576C8.76 8.576 9.816 9.584 10.416 10.928L12.744 9.584C11.688 7.352 9.648 5.888 6.888 5.888C4.056 5.888 1.488 7.64 1.488 10.736C1.488 13.904 4.032 14.864 6.648 15.656C9.144 16.424 10.464 16.928 10.464 18.416C10.464 19.64 9.528 20.624 7.344 20.624C5.064 20.624 3.768 19.496 3.168 17.792L0.792 19.184C1.68 21.68 3.96 23.312 7.272 23.312ZM23.0766 11L20.0046 19.712L16.4286 11H13.5966L18.6846 22.784L18.5646 23.024C17.9646 24.608 17.0526 25.472 15.3726 25.376V27.8C18.1326 27.968 20.1006 26.432 21.2286 23.384L25.8366 11H23.0766ZM27.4573 23H30.0493V5.48H27.4573V23ZM39.7549 13.496V11H36.7789V7.64L34.1869 8.408V11H31.9789V13.496H34.1869V19.256C34.1869 22.376 35.7709 23.48 39.7549 23V20.672C37.7869 20.768 36.7789 20.792 36.7789 19.256V13.496H39.7549ZM48.4178 10.688C46.7858 10.688 45.4898 11.288 44.6978 12.536V6.2H42.1058V23H44.6978V16.568C44.6978 14.12 46.0418 13.112 47.7458 13.112C49.3778 13.112 50.4338 14.072 50.4338 15.896V23H53.0258V15.632C53.0258 12.512 51.1058 10.688 48.4178 10.688ZM57.8567 18.104H67.4087C67.4567 17.768 67.5047 17.384 67.5047 17.024C67.5047 13.568 65.0567 10.688 61.4807 10.688C57.7127 10.688 55.1447 13.448 55.1447 17C55.1447 20.6 57.7127 23.312 61.6727 23.312C64.0247 23.312 65.8247 22.328 66.9287 20.696L64.7927 19.448C64.2167 20.288 63.1367 20.936 61.6967 20.936C59.7767 20.936 58.2647 19.976 57.8567 18.104ZM57.8327 15.992C58.1927 14.192 59.5127 13.04 61.4567 13.04C63.0167 13.04 64.5287 13.928 64.8887 15.992H57.8327ZM72.3774 13.016V11H69.7854V23H72.3774V16.952C72.3774 14.264 74.3694 13.472 76.0734 13.592V10.784C74.5614 10.784 73.0974 11.384 72.3774 13.016ZM79.2846 9.2C80.1966 9.2 80.9406 8.432 80.9406 7.544C80.9406 6.632 80.1966 5.888 79.2846 5.888C78.3726 5.888 77.6286 6.632 77.6286 7.544C77.6286 8.432 78.3726 9.2 79.2846 9.2ZM77.9886 23H80.5806V11H77.9886V23ZM89.9021 10.688C88.2701 10.688 86.9741 11.288 86.1821 12.536V11H83.5901V23H86.1821V16.568C86.1821 14.12 87.5261 13.112 89.2301 13.112C90.8621 13.112 91.9181 14.072 91.9181 15.896V23H94.5101V15.632C94.5101 12.512 92.5901 10.688 89.9021 10.688ZM99.3411 18.104H108.893C108.941 17.768 108.989 17.384 108.989 17.024C108.989 13.568 106.541 10.688 102.965 10.688C99.1971 10.688 96.6291 13.448 96.6291 17C96.6291 20.6 99.1971 23.312 103.157 23.312C105.509 23.312 107.309 22.328 108.413 20.696L106.277 19.448C105.701 20.288 104.621 20.936 103.181 20.936C101.261 20.936 99.7491 19.976 99.3411 18.104ZM99.3171 15.992C99.6771 14.192 100.997 13.04 102.941 13.04C104.501 13.04 106.013 13.928 106.373 15.992H99.3171Z" fill="#3A3A3A"/>
<path d="M4.816 54.208C7.104 54.208 8.688 52.96 8.688 50.992C8.688 48.832 6.848 48.256 4.896 47.616C3.328 47.12 2.544 46.736 2.544 45.696C2.544 44.672 3.376 44.032 4.576 44.032C5.936 44.032 6.72 44.8 7.12 45.76L8.368 45.04C7.744 43.632 6.416 42.592 4.576 42.592C2.704 42.592 1.056 43.744 1.056 45.76C1.056 47.84 2.784 48.4 4.576 48.976C6.224 49.488 7.216 49.872 7.216 51.024C7.216 52.032 6.432 52.752 4.848 52.752C3.216 52.752 2.256 51.952 1.856 50.72L0.576 51.456C1.168 53.136 2.688 54.208 4.816 54.208ZM14.4236 47.344V46H12.2956V43.76L10.9036 44.176V46H9.31963V47.344H10.9036V51.68C10.9036 53.68 12.0236 54.32 14.4236 54V52.752C12.9996 52.816 12.2956 52.896 12.2956 51.68V47.344H14.4236ZM21.8275 46L19.5235 52.272L16.8035 46H15.3155L18.8035 53.968L18.6595 54.272C18.2435 55.328 17.5715 55.984 16.4995 55.904V57.2C18.1315 57.312 19.3795 56.288 20.0515 54.496L23.3155 46H21.8275ZM24.4779 54H25.8699V42.32H24.4779V54ZM28.6975 44.544C29.2095 44.544 29.6255 44.128 29.6255 43.616C29.6255 43.104 29.2095 42.672 28.6975 42.672C28.1695 42.672 27.7535 43.104 27.7535 43.616C27.7535 44.128 28.1695 44.544 28.6975 44.544ZM27.9935 54H29.3855V46H27.9935V54ZM32.6935 48.16C32.6935 47.44 33.3975 47.088 34.1175 47.088C34.8215 47.088 35.5255 47.392 35.8295 48.112L36.9975 47.456C36.4855 46.416 35.4295 45.792 34.1175 45.792C32.5015 45.792 31.2855 46.768 31.2855 48.176C31.2855 51.072 35.7655 50.096 35.7655 51.808C35.7655 52.592 35.0295 52.896 34.1815 52.896C33.1895 52.896 32.4535 52.416 32.1975 51.648L30.9975 52.336C31.4615 53.44 32.5815 54.208 34.1815 54.208C35.8935 54.208 37.1735 53.296 37.1735 51.808C37.1735 48.864 32.6935 49.872 32.6935 48.16ZM42.7275 45.792C41.6075 45.792 40.7275 46.208 40.1355 47.152V42.8H38.7435V54H40.1355V49.76C40.1355 47.872 41.1755 47.12 42.4555 47.12C43.6875 47.12 44.4395 47.856 44.4395 49.168V54H45.8315V49.088C45.8315 47.04 44.5995 45.792 42.7275 45.792ZM55.5348 54.208C57.1028 54.208 58.4628 53.376 59.1348 52.128L57.9508 51.44C57.5028 52.272 56.6228 52.832 55.5348 52.832C53.9348 52.832 52.7188 51.6 52.7188 50C52.7188 48.384 53.9348 47.152 55.5348 47.152C56.6068 47.152 57.5028 47.712 57.9028 48.56L59.0708 47.888C58.4628 46.624 57.1188 45.792 55.5348 45.792C53.1188 45.792 51.3268 47.632 51.3268 50C51.3268 52.368 53.1188 54.208 55.5348 54.208ZM67.0238 46V47.376C66.3838 46.4 65.3598 45.792 63.9998 45.792C61.7758 45.792 59.9518 47.632 59.9518 50C59.9518 52.368 61.7758 54.208 63.9998 54.208C65.3598 54.208 66.3838 53.6 67.0238 52.624V54H68.4158V46H67.0238ZM64.1758 52.864C62.5758 52.864 61.3438 51.632 61.3438 50C61.3438 48.368 62.5758 47.136 64.1758 47.136C65.7918 47.136 67.0238 48.368 67.0238 50C67.0238 51.632 65.7918 52.864 64.1758 52.864ZM74.6368 43.936V42.592C72.3488 42.432 71.1328 43.632 71.1328 45.76V46H69.8528V47.344H71.1328V54H72.5248V47.344H74.6368V46H72.5248V45.76C72.5248 44.368 73.2448 43.824 74.6368 43.936ZM76.2351 50.64H82.9391C82.9711 50.432 82.9871 50.224 82.9871 50.016C82.9871 47.776 81.4191 45.792 79.0031 45.792C76.5071 45.792 74.8111 47.632 74.8111 50C74.8111 52.4 76.5231 54.208 79.0991 54.208C80.6991 54.208 81.9151 53.488 82.6191 52.4L81.4351 51.728C81.0351 52.384 80.2351 52.896 79.1311 52.896C77.6431 52.896 76.5071 52.08 76.2351 50.64ZM79.0031 47.104C80.2031 47.104 81.3391 47.84 81.5791 49.424H76.2351C76.4591 48.032 77.4991 47.104 79.0031 47.104ZM92.3473 54.208C93.9153 54.208 95.2753 53.376 95.9473 52.128L94.7633 51.44C94.3153 52.272 93.4353 52.832 92.3473 52.832C90.7473 52.832 89.5312 51.6 89.5312 50C89.5312 48.384 90.7473 47.152 92.3473 47.152C93.4193 47.152 94.3153 47.712 94.7153 48.56L95.8833 47.888C95.2753 46.624 93.9313 45.792 92.3473 45.792C89.9313 45.792 88.1393 47.632 88.1393 50C88.1393 52.368 89.9313 54.208 92.3473 54.208ZM101.306 45.792C100.186 45.792 99.3056 46.208 98.7136 47.152V42.8H97.3216V54H98.7136V49.76C98.7136 47.872 99.7536 47.12 101.034 47.12C102.266 47.12 103.018 47.856 103.018 49.168V54H104.41V49.088C104.41 47.04 103.178 45.792 101.306 45.792ZM112.977 46V47.376C112.337 46.4 111.313 45.792 109.953 45.792C107.729 45.792 105.905 47.632 105.905 50C105.905 52.368 107.729 54.208 109.953 54.208C111.313 54.208 112.337 53.6 112.977 52.624V54H114.369V46H112.977ZM110.129 52.864C108.529 52.864 107.297 51.632 107.297 50C107.297 48.368 108.529 47.136 110.129 47.136C111.745 47.136 112.977 48.368 112.977 50C112.977 51.632 111.745 52.864 110.129 52.864ZM117.182 44.544C117.694 44.544 118.11 44.128 118.11 43.616C118.11 43.104 117.694 42.672 117.182 42.672C116.654 42.672 116.238 43.104 116.238 43.616C116.238 44.128 116.654 44.544 117.182 44.544ZM116.478 54H117.87V46H116.478V54ZM121.386 47.344V46H119.993V54H121.386V49.76C121.386 47.872 122.682 47.264 123.882 47.312V45.856C122.874 45.856 121.898 46.224 121.386 47.344Z" fill="#898989"/>
</svg>
