<svg width="1237" height="85" viewBox="0 0 1237 85" fill="none" xmlns="http://www.w3.org/2000/svg">
<path d="M54.903 24.3438C54.0495 24.3438 53.2494 24.5741 52.5593 24.9744V23.1719C52.5593 22.5247 52.0346 22 51.3874 22H32.6374C31.9902 22 31.4655 22.5247 31.4655 23.1719V24.9887C30.7699 24.5795 29.9606 24.3438 29.097 24.3438C26.5123 24.3438 24.4095 26.4466 24.4095 29.0312C24.4095 31.0027 24.9937 32.9077 26.0989 34.5402C27.9805 37.3193 30.3007 38.0405 32.2206 38.8084C33.3277 41.5653 35.5663 43.7502 38.3589 44.7846L37.4948 50.2812H37.3249C35.3864 50.2812 33.8093 51.8584 33.8093 53.7969V59.6562H32.6374C31.9902 59.6562 31.4655 60.1809 31.4655 60.8281C31.4655 61.4753 31.9902 62 32.6374 62H51.3874C52.0346 62 52.5593 61.4753 52.5593 60.8281C52.5593 60.1809 52.0346 59.6562 51.3874 59.6562H50.2155V53.7969C50.2155 51.8584 48.6384 50.2812 46.6999 50.2812H46.5301L45.666 44.7847C48.4627 43.7487 50.7038 41.5591 51.8092 38.7966C53.6229 38.0711 56.0003 37.3478 57.9012 34.5402C59.0064 32.9077 59.5906 31.0027 59.5906 29.0312C59.5905 26.4466 57.4877 24.3438 54.903 24.3438ZM31.4568 35.9787C28.5995 34.8357 26.7532 32.1087 26.7532 29.0312C26.7532 27.7389 27.8046 26.6875 29.097 26.6875C30.3893 26.6875 31.4407 27.7389 31.4407 29.0312C31.4407 29.1137 31.4494 29.194 31.4655 29.2716V34.8906C31.4655 35.2673 31.4858 35.6392 31.5245 36.0058L31.4568 35.9787ZM47.8718 59.6562H36.153V57.3125H47.8718V59.6562ZM46.6999 52.625C47.3461 52.625 47.8718 53.1507 47.8718 53.7969V54.9688H36.153V53.7969C36.153 53.1507 36.6788 52.625 37.3249 52.625C37.9607 52.625 45.2089 52.625 46.6999 52.625ZM39.8673 50.2812L40.6427 45.3487C41.0912 45.4071 41.5483 45.4375 42.0124 45.4375C42.4766 45.4375 42.9337 45.407 43.3821 45.3487L44.1576 50.2812H39.8673ZM50.2155 34.8906C50.2155 39.4138 46.5356 43.0938 42.0124 43.0938C37.4892 43.0938 33.8093 39.4138 33.8093 34.8906V29.0312H50.2155V34.8906ZM50.2155 26.6875H33.8093V24.3438H50.2155V26.6875ZM52.5431 35.9787L52.5015 35.9953C52.5395 35.6322 52.5592 35.2637 52.5592 34.8906V29.0312C52.5593 27.7389 53.6107 26.6875 54.903 26.6875C56.1954 26.6875 57.2468 27.7389 57.2468 29.0312C57.2468 32.1087 55.4005 34.8358 52.5431 35.9787Z" fill="#3A3A3A"/>
<path d="M94.73 23.4V28.566H89.33V23.4H87.26V36H89.33V30.546H94.73V36H96.8V23.4H94.73ZM100.165 25.65C100.849 25.65 101.407 25.074 101.407 24.408C101.407 23.724 100.849 23.166 100.165 23.166C99.4806 23.166 98.9226 23.724 98.9226 24.408C98.9226 25.074 99.4806 25.65 100.165 25.65ZM99.1926 36H101.137V27H99.1926V36ZM110.558 27V28.332C109.874 27.36 108.812 26.766 107.426 26.766C104.888 26.766 102.89 28.836 102.89 31.41C102.89 33.984 104.888 36.054 107.426 36.054C108.812 36.054 109.874 35.46 110.558 34.488V35.586C110.558 37.152 109.55 38.07 107.876 38.07C106.31 38.07 105.644 37.458 105.248 36.684L103.574 37.656C104.33 39.096 105.86 39.834 107.84 39.834C110.198 39.834 112.466 38.484 112.466 35.586V27H110.558ZM107.696 34.236C106.058 34.236 104.834 33.03 104.834 31.41C104.834 29.79 106.058 28.584 107.696 28.584C109.334 28.584 110.558 29.79 110.558 31.41C110.558 33.03 109.334 34.236 107.696 34.236ZM119.466 26.766C118.242 26.766 117.27 27.216 116.676 28.152V23.4H114.732V36H116.676V31.176C116.676 29.34 117.684 28.584 118.962 28.584C120.186 28.584 120.978 29.304 120.978 30.672V36H122.922V30.474C122.922 28.134 121.482 26.766 119.466 26.766ZM142.079 29.7C142.079 26.046 139.163 23.166 135.545 23.166C131.945 23.166 129.011 26.046 129.011 29.7C129.011 33.354 131.945 36.234 135.545 36.234C136.769 36.234 137.921 35.892 138.911 35.316L140.297 36.738L141.755 35.424L140.423 34.056C141.449 32.922 142.079 31.392 142.079 29.7ZM135.545 34.218C133.061 34.218 131.081 32.292 131.081 29.7C131.081 27.108 133.061 25.182 135.545 25.182C138.029 25.182 140.009 27.108 140.009 29.7C140.009 30.834 139.631 31.824 139.001 32.598L136.589 30.132L135.131 31.446L137.435 33.804C136.859 34.074 136.229 34.218 135.545 34.218ZM150.1 27V31.824C150.1 33.66 149.092 34.416 147.814 34.416C146.59 34.416 145.798 33.696 145.798 32.328V27H143.854V32.526C143.854 34.866 145.294 36.234 147.31 36.234C148.534 36.234 149.506 35.784 150.1 34.848V36H152.044V27H150.1ZM161.446 27V28.278C160.762 27.342 159.7 26.766 158.296 26.766C155.848 26.766 153.814 28.818 153.814 31.5C153.814 34.164 155.848 36.234 158.296 36.234C159.7 36.234 160.762 35.658 161.446 34.704V36H163.39V27H161.446ZM158.602 34.38C156.982 34.38 155.758 33.174 155.758 31.5C155.758 29.826 156.982 28.62 158.602 28.62C160.222 28.62 161.446 29.826 161.446 31.5C161.446 33.174 160.222 34.38 158.602 34.38ZM165.655 36H167.599V22.86H165.655V36ZM170.829 25.65C171.513 25.65 172.071 25.074 172.071 24.408C172.071 23.724 171.513 23.166 170.829 23.166C170.145 23.166 169.587 23.724 169.587 24.408C169.587 25.074 170.145 25.65 170.829 25.65ZM169.857 36H171.801V27H169.857V36ZM179.08 28.872V27H176.848V24.48L174.904 25.056V27H173.248V28.872H174.904V33.192C174.904 35.532 176.092 36.36 179.08 36V34.254C177.604 34.326 176.848 34.344 176.848 33.192V28.872H179.08ZM187.085 27L184.781 33.534L182.099 27H179.975L183.791 35.838L183.701 36.018C183.251 37.206 182.567 37.854 181.307 37.782V39.6C183.377 39.726 184.853 38.574 185.699 36.288L189.155 27H187.085Z" fill="#3A3A3A"/>
<path d="M90.816 62.208C92.384 62.208 93.744 61.376 94.416 60.128L93.232 59.44C92.784 60.272 91.904 60.832 90.816 60.832C89.216 60.832 88 59.6 88 58C88 56.384 89.216 55.152 90.816 55.152C91.888 55.152 92.784 55.712 93.184 56.56L94.352 55.888C93.744 54.624 92.4 53.792 90.816 53.792C88.4 53.792 86.608 55.632 86.608 58C86.608 60.368 88.4 62.208 90.816 62.208ZM97.198 55.344V54H95.806V62H97.198V57.76C97.198 55.872 98.494 55.264 99.694 55.312V53.856C98.686 53.856 97.71 54.224 97.198 55.344ZM107.243 54V55.376C106.603 54.4 105.579 53.792 104.219 53.792C101.995 53.792 100.171 55.632 100.171 58C100.171 60.368 101.995 62.208 104.219 62.208C105.579 62.208 106.603 61.6 107.243 60.624V62H108.635V54H107.243ZM104.395 60.864C102.795 60.864 101.562 59.632 101.562 58C101.562 56.368 102.795 55.136 104.395 55.136C106.011 55.136 107.243 56.368 107.243 58C107.243 59.632 106.011 60.864 104.395 60.864ZM114.856 51.936V50.592C112.568 50.432 111.352 51.632 111.352 53.76V54H110.072V55.344H111.352V62H112.744V55.344H114.856V54H112.744V53.76C112.744 52.368 113.464 51.824 114.856 51.936ZM120.564 55.344V54H118.436V51.76L117.044 52.176V54H115.46V55.344H117.044V59.68C117.044 61.68 118.164 62.32 120.564 62V60.752C119.14 60.816 118.436 60.896 118.436 59.68V55.344H120.564ZM122.782 58.64H129.486C129.518 58.432 129.534 58.224 129.534 58.016C129.534 55.776 127.966 53.792 125.55 53.792C123.054 53.792 121.358 55.632 121.358 58C121.358 60.4 123.07 62.208 125.646 62.208C127.246 62.208 128.462 61.488 129.166 60.4L127.982 59.728C127.582 60.384 126.782 60.896 125.678 60.896C124.19 60.896 123.054 60.08 122.782 58.64ZM125.55 55.104C126.75 55.104 127.886 55.84 128.126 57.424H122.782C123.006 56.032 124.046 55.104 125.55 55.104ZM137.743 50.8V55.376C137.103 54.4 136.079 53.792 134.719 53.792C132.495 53.792 130.671 55.632 130.671 58C130.671 60.368 132.495 62.208 134.719 62.208C136.079 62.208 137.103 61.6 137.743 60.624V62H139.135V50.8H137.743ZM134.895 60.864C133.295 60.864 132.062 59.632 132.062 58C132.062 56.368 133.295 55.136 134.895 55.136C136.511 55.136 137.743 56.368 137.743 58C137.743 59.632 136.511 60.864 134.895 60.864ZM149.356 51.936V50.592C147.068 50.432 145.852 51.632 145.852 53.76V54H144.572V55.344H145.852V62H147.244V55.344H149.356V54H147.244V53.76C147.244 52.368 147.964 51.824 149.356 51.936ZM151.807 55.344V54H150.415V62H151.807V57.76C151.807 55.872 153.103 55.264 154.303 55.312V53.856C153.295 53.856 152.319 54.224 151.807 55.344ZM158.988 62.208C161.324 62.208 163.212 60.368 163.212 58C163.212 55.632 161.324 53.792 158.988 53.792C156.652 53.792 154.78 55.632 154.78 58C154.78 60.368 156.652 62.208 158.988 62.208ZM158.988 60.848C157.404 60.848 156.172 59.616 156.172 58C156.172 56.384 157.404 55.152 158.988 55.152C160.588 55.152 161.82 56.384 161.82 58C161.82 59.616 160.588 60.848 158.988 60.848ZM173.493 53.792C172.453 53.792 171.541 54.24 170.981 55.152C170.517 54.288 169.717 53.792 168.629 53.792C167.653 53.792 166.821 54.176 166.245 55.072V54H164.853V62H166.245V57.552C166.245 55.824 167.221 55.12 168.293 55.12C169.333 55.12 169.989 55.808 169.989 57.072V62H171.381V57.552C171.381 55.824 172.229 55.12 173.349 55.12C174.405 55.12 175.109 55.808 175.109 57.072V62H176.501V57.024C176.501 55.024 175.269 53.792 173.493 53.792ZM186.783 55.344V54H184.655V51.76L183.263 52.176V54H181.679V55.344H183.263V59.68C183.263 61.68 184.383 62.32 186.783 62V60.752C185.359 60.816 184.655 60.896 184.655 59.68V55.344H186.783ZM191.785 62.208C194.121 62.208 196.009 60.368 196.009 58C196.009 55.632 194.121 53.792 191.785 53.792C189.449 53.792 187.577 55.632 187.577 58C187.577 60.368 189.449 62.208 191.785 62.208ZM191.785 60.848C190.201 60.848 188.969 59.616 188.969 58C188.969 56.384 190.201 55.152 191.785 55.152C193.385 55.152 194.617 56.384 194.617 58C194.617 59.616 193.385 60.848 191.785 60.848ZM202.066 53.792C200.706 53.792 199.682 54.4 199.042 55.376V54H197.65V65.2H199.042V60.624C199.682 61.6 200.706 62.208 202.066 62.208C204.29 62.208 206.114 60.368 206.114 58C206.114 55.632 204.29 53.792 202.066 53.792ZM201.89 60.864C200.274 60.864 199.042 59.632 199.042 58C199.042 56.368 200.274 55.136 201.89 55.136C203.49 55.136 204.722 56.368 204.722 58C204.722 59.632 203.49 60.864 201.89 60.864ZM220.415 53.792C219.375 53.792 218.463 54.24 217.903 55.152C217.439 54.288 216.639 53.792 215.551 53.792C214.575 53.792 213.743 54.176 213.167 55.072V54H211.775V62H213.167V57.552C213.167 55.824 214.143 55.12 215.215 55.12C216.255 55.12 216.911 55.808 216.911 57.072V62H218.303V57.552C218.303 55.824 219.151 55.12 220.271 55.12C221.327 55.12 222.031 55.808 222.031 57.072V62H223.423V57.024C223.423 55.024 222.191 53.792 220.415 53.792ZM231.977 54V55.376C231.337 54.4 230.313 53.792 228.953 53.792C226.729 53.792 224.905 55.632 224.905 58C224.905 60.368 226.729 62.208 228.953 62.208C230.313 62.208 231.337 61.6 231.977 60.624V62H233.369V54H231.977ZM229.129 60.864C227.529 60.864 226.297 59.632 226.297 58C226.297 56.368 227.529 55.136 229.129 55.136C230.745 55.136 231.977 56.368 231.977 58C231.977 59.632 230.745 60.864 229.129 60.864ZM239.83 55.344V54H237.702V51.76L236.31 52.176V54H234.726V55.344H236.31V59.68C236.31 61.68 237.43 62.32 239.83 62V60.752C238.406 60.816 237.702 60.896 237.702 59.68V55.344H239.83ZM242.048 58.64H248.752C248.784 58.432 248.8 58.224 248.8 58.016C248.8 55.776 247.232 53.792 244.816 53.792C242.32 53.792 240.624 55.632 240.624 58C240.624 60.4 242.336 62.208 244.912 62.208C246.512 62.208 247.728 61.488 248.432 60.4L247.248 59.728C246.848 60.384 246.048 60.896 244.944 60.896C243.456 60.896 242.32 60.08 242.048 58.64ZM244.816 55.104C246.016 55.104 247.152 55.84 247.392 57.424H242.048C242.272 56.032 243.312 55.104 244.816 55.104ZM251.792 55.344V54H250.4V62H251.792V57.76C251.792 55.872 253.088 55.264 254.288 55.312V53.856C253.28 53.856 252.304 54.224 251.792 55.344ZM256.354 52.544C256.866 52.544 257.282 52.128 257.282 51.616C257.282 51.104 256.866 50.672 256.354 50.672C255.826 50.672 255.41 51.104 255.41 51.616C255.41 52.128 255.826 52.544 256.354 52.544ZM255.65 62H257.042V54H255.65V62ZM265.789 54V55.376C265.149 54.4 264.125 53.792 262.765 53.792C260.541 53.792 258.717 55.632 258.717 58C258.717 60.368 260.541 62.208 262.765 62.208C264.125 62.208 265.149 61.6 265.789 60.624V62H267.181V54H265.789ZM262.941 60.864C261.341 60.864 260.109 59.632 260.109 58C260.109 56.368 261.341 55.136 262.941 55.136C264.557 55.136 265.789 56.368 265.789 58C265.789 59.632 264.557 60.864 262.941 60.864ZM269.29 62H270.682V50.32H269.29V62ZM273.99 56.16C273.99 55.44 274.694 55.088 275.414 55.088C276.118 55.088 276.822 55.392 277.126 56.112L278.294 55.456C277.782 54.416 276.726 53.792 275.414 53.792C273.798 53.792 272.582 54.768 272.582 56.176C272.582 59.072 277.062 58.096 277.062 59.808C277.062 60.592 276.326 60.896 275.478 60.896C274.486 60.896 273.75 60.416 273.494 59.648L272.294 60.336C272.758 61.44 273.878 62.208 275.478 62.208C277.19 62.208 278.47 61.296 278.47 59.808C278.47 56.864 273.99 57.872 273.99 56.16Z" fill="#898989"/>
<g clip-path="url(#clip0_18_418)">
<path d="M431.857 36.1741C431.33 34.5397 431.555 32.0864 430.183 30.1921C428.8 28.2829 426.395 27.7402 425.037 26.7471C423.694 25.7644 422.444 23.6261 420.184 22.8886C417.987 22.1718 415.741 23.1444 414 23.1444C412.259 23.1444 410.013 22.1716 407.816 22.8885C405.557 23.6258 404.306 25.7647 402.963 26.7468C401.606 27.7388 399.2 28.2829 397.817 30.1918C396.447 32.0846 396.67 34.5436 396.143 36.174C395.641 37.7258 394 39.5882 394 42.0001C394 44.4135 395.639 46.2687 396.143 47.8261C396.67 49.4605 396.445 51.9139 397.817 53.8082C399.2 55.7175 401.605 56.26 402.963 57.2532C404.306 58.2357 405.556 60.3743 407.816 61.1117C410.011 61.8279 412.261 60.8558 414 60.8558C415.737 60.8558 417.992 61.8269 420.184 61.1118C422.443 60.3744 423.694 58.2361 425.037 57.2534C426.394 56.2614 428.8 55.7173 430.182 53.8084C431.553 51.9156 431.33 49.4568 431.857 47.8262C432.359 46.2743 434 44.4119 434 42.0001C434 39.5869 432.361 37.7322 431.857 36.1741ZM428.884 46.8653C428.269 48.7696 428.43 50.9007 427.652 51.9753C426.863 53.0641 424.791 53.5614 423.193 54.7308C421.611 55.8871 420.503 57.7202 419.214 58.1407C417.995 58.5387 416.008 57.7307 414 57.7307C411.978 57.7307 410.011 58.5404 408.786 58.1407C407.497 57.7202 406.39 55.8884 404.807 54.7307C403.218 53.5685 401.135 53.0609 400.348 51.9751C399.573 50.9042 399.728 48.7582 399.116 46.8654C398.517 45.0107 397.125 43.4049 397.125 42.0001C397.125 40.594 398.516 38.9936 399.116 37.135C399.731 35.2307 399.57 33.0994 400.348 32.025C401.136 30.9368 403.21 30.4379 404.807 29.2694C406.394 28.1093 407.495 26.2807 408.786 25.8595C410.004 25.462 411.998 26.2696 414 26.2696C416.026 26.2696 417.988 25.4593 419.214 25.8595C420.503 26.28 421.61 28.1125 423.193 29.2695C424.782 30.4318 426.865 30.9393 427.652 32.025C428.427 33.0962 428.271 35.24 428.884 37.1348V37.1349C429.483 38.9895 430.875 40.5954 430.875 42.0001C430.875 43.4063 429.484 45.0066 428.884 46.8653ZM421.199 36.9849C421.809 37.5951 421.809 38.5844 421.199 39.1946L413.378 47.0154C412.768 47.6256 411.778 47.6255 411.168 47.0154L406.801 42.6486C406.191 42.0384 406.191 41.0491 406.801 40.4389C407.412 39.8288 408.401 39.8287 409.011 40.4389L412.273 43.7008L418.989 36.985C419.599 36.3747 420.588 36.3747 421.199 36.9849Z" fill="#3A3A3A"/>
</g>
<path d="M461.924 36H464.318L467 26.802L469.664 36H472.058L475.622 23.4H473.444L470.798 33.246L467.954 23.4H466.046L463.184 33.246L460.538 23.4H458.36L461.924 36ZM483.172 27V28.278C482.488 27.342 481.426 26.766 480.022 26.766C477.574 26.766 475.54 28.818 475.54 31.5C475.54 34.164 477.574 36.234 480.022 36.234C481.426 36.234 482.488 35.658 483.172 34.704V36H485.116V27H483.172ZM480.328 34.38C478.708 34.38 477.484 33.174 477.484 31.5C477.484 29.826 478.708 28.62 480.328 28.62C481.948 28.62 483.172 29.826 483.172 31.5C483.172 33.174 481.948 34.38 480.328 34.38ZM489.326 28.512V27H487.382V36H489.326V31.464C489.326 29.448 490.82 28.854 492.098 28.944V26.838C490.964 26.838 489.866 27.288 489.326 28.512ZM495.478 28.512V27H493.534V36H495.478V31.464C495.478 29.448 496.972 28.854 498.25 28.944V26.838C497.116 26.838 496.018 27.288 495.478 28.512ZM506.393 27V28.278C505.709 27.342 504.647 26.766 503.243 26.766C500.795 26.766 498.761 28.818 498.761 31.5C498.761 34.164 500.795 36.234 503.243 36.234C504.647 36.234 505.709 35.658 506.393 34.704V36H508.337V27H506.393ZM503.549 34.38C501.929 34.38 500.705 33.174 500.705 31.5C500.705 29.826 501.929 28.62 503.549 28.62C505.169 28.62 506.393 29.826 506.393 31.5C506.393 33.174 505.169 34.38 503.549 34.38ZM515.337 26.766C514.113 26.766 513.141 27.216 512.547 28.152V27H510.603V36H512.547V31.176C512.547 29.34 513.555 28.584 514.833 28.584C516.057 28.584 516.849 29.304 516.849 30.672V36H518.793V30.474C518.793 28.134 517.353 26.766 515.337 26.766ZM526.776 27L524.472 33.534L521.79 27H519.666L523.482 35.838L523.392 36.018C522.942 37.206 522.258 37.854 520.998 37.782V39.6C523.068 39.726 524.544 38.574 525.39 36.288L528.846 27H526.776ZM539.332 23.4H534.688V36H536.758V31.68H539.332C541.708 31.68 543.508 29.862 543.508 27.54C543.508 25.2 541.708 23.4 539.332 23.4ZM539.332 29.736H536.758V25.344H539.332C540.556 25.344 541.438 26.262 541.438 27.54C541.438 28.8 540.556 29.736 539.332 29.736ZM546.947 28.512V27H545.003V36H546.947V31.464C546.947 29.448 548.441 28.854 549.719 28.944V26.838C548.585 26.838 547.487 27.288 546.947 28.512ZM554.982 36.234C557.628 36.234 559.734 34.164 559.734 31.5C559.734 28.818 557.628 26.766 554.982 26.766C552.354 26.766 550.23 28.818 550.23 31.5C550.23 34.164 552.354 36.234 554.982 36.234ZM554.982 34.344C553.398 34.344 552.174 33.138 552.174 31.5C552.174 29.862 553.398 28.656 554.982 28.656C556.566 28.656 557.79 29.862 557.79 31.5C557.79 33.138 556.566 34.344 554.982 34.344ZM566.338 28.872V27H564.106V24.48L562.162 25.056V27H560.506V28.872H562.162V33.192C562.162 35.532 563.35 36.36 566.338 36V34.254C564.862 34.326 564.106 34.344 564.106 33.192V28.872H566.338ZM569.262 32.328H576.426C576.462 32.076 576.498 31.788 576.498 31.518C576.498 28.926 574.662 26.766 571.98 26.766C569.154 26.766 567.228 28.836 567.228 31.5C567.228 34.2 569.154 36.234 572.124 36.234C573.888 36.234 575.238 35.496 576.066 34.272L574.464 33.336C574.032 33.966 573.222 34.452 572.142 34.452C570.702 34.452 569.568 33.732 569.262 32.328ZM569.244 30.744C569.514 29.394 570.504 28.53 571.962 28.53C573.132 28.53 574.266 29.196 574.536 30.744H569.244ZM582.403 36.234C584.167 36.234 585.697 35.316 586.453 33.894L584.779 32.94C584.347 33.768 583.465 34.326 582.385 34.326C580.801 34.326 579.595 33.12 579.595 31.5C579.595 29.88 580.801 28.674 582.385 28.674C583.465 28.674 584.347 29.214 584.743 30.06L586.417 29.088C585.697 27.684 584.167 26.766 582.403 26.766C579.685 26.766 577.651 28.818 577.651 31.5C577.651 34.164 579.685 36.234 582.403 36.234ZM592.881 28.872V27H590.649V24.48L588.705 25.056V27H587.049V28.872H588.705V33.192C588.705 35.532 589.893 36.36 592.881 36V34.254C591.405 34.326 590.649 34.344 590.649 33.192V28.872H592.881ZM595.616 25.65C596.3 25.65 596.858 25.074 596.858 24.408C596.858 23.724 596.3 23.166 595.616 23.166C594.932 23.166 594.374 23.724 594.374 24.408C594.374 25.074 594.932 25.65 595.616 25.65ZM594.644 36H596.588V27H594.644V36ZM603.093 36.234C605.739 36.234 607.845 34.164 607.845 31.5C607.845 28.818 605.739 26.766 603.093 26.766C600.465 26.766 598.341 28.818 598.341 31.5C598.341 34.164 600.465 36.234 603.093 36.234ZM603.093 34.344C601.509 34.344 600.285 33.138 600.285 31.5C600.285 29.862 601.509 28.656 603.093 28.656C604.677 28.656 605.901 29.862 605.901 31.5C605.901 33.138 604.677 34.344 603.093 34.344ZM614.337 26.766C613.113 26.766 612.141 27.216 611.547 28.152V27H609.603V36H611.547V31.176C611.547 29.34 612.555 28.584 613.833 28.584C615.057 28.584 615.849 29.304 615.849 30.672V36H617.793V30.474C617.793 28.134 616.353 26.766 614.337 26.766Z" fill="#3A3A3A"/>
<path d="M464.4 62.208C467.648 62.208 470.208 59.616 470.208 56.4C470.208 53.168 467.648 50.592 464.4 50.592C461.152 50.592 458.608 53.168 458.608 56.4C458.608 59.616 461.152 62.208 464.4 62.208ZM464.4 60.752C461.952 60.752 460.08 58.848 460.08 56.4C460.08 53.936 461.952 52.032 464.4 52.032C466.848 52.032 468.72 53.936 468.72 56.4C468.72 58.848 466.848 60.752 464.4 60.752ZM477.453 54L474.941 60.512L472.429 54H470.925L474.125 62H475.757L478.957 54H477.453ZM480.798 58.64H487.502C487.534 58.432 487.55 58.224 487.55 58.016C487.55 55.776 485.982 53.792 483.566 53.792C481.07 53.792 479.374 55.632 479.374 58C479.374 60.4 481.086 62.208 483.662 62.208C485.262 62.208 486.478 61.488 487.182 60.4L485.998 59.728C485.598 60.384 484.798 60.896 483.694 60.896C482.206 60.896 481.07 60.08 480.798 58.64ZM483.566 55.104C484.766 55.104 485.902 55.84 486.142 57.424H480.798C481.022 56.032 482.062 55.104 483.566 55.104ZM490.542 55.344V54H489.15V62H490.542V57.76C490.542 55.872 491.838 55.264 493.038 55.312V53.856C492.03 53.856 491.054 54.224 490.542 55.344ZM497.92 62H505.152V60.56H500.08L502.944 57.712C504.048 56.608 504.944 55.408 504.944 54.016C504.944 51.808 503.2 50.592 501.456 50.592C500 50.592 498.64 51.312 497.92 52.8L499.168 53.536C499.648 52.528 500.448 52.032 501.472 52.032C502.512 52.032 503.456 52.72 503.456 54.032C503.456 54.976 502.752 55.872 501.872 56.752L497.92 60.784V62ZM516.421 54L514.117 60.272L511.397 54H509.909L513.397 61.968L513.253 62.272C512.837 63.328 512.165 63.984 511.093 63.904V65.2C512.725 65.312 513.973 64.288 514.645 62.496L517.909 54H516.421ZM519.735 58.64H526.439C526.471 58.432 526.487 58.224 526.487 58.016C526.487 55.776 524.919 53.792 522.503 53.792C520.007 53.792 518.311 55.632 518.311 58C518.311 60.4 520.023 62.208 522.599 62.208C524.199 62.208 525.415 61.488 526.119 60.4L524.935 59.728C524.535 60.384 523.735 60.896 522.631 60.896C521.143 60.896 520.007 60.08 519.735 58.64ZM522.503 55.104C523.703 55.104 524.839 55.84 525.079 57.424H519.735C519.959 56.032 520.999 55.104 522.503 55.104ZM534.696 54V55.376C534.056 54.4 533.032 53.792 531.672 53.792C529.448 53.792 527.624 55.632 527.624 58C527.624 60.368 529.448 62.208 531.672 62.208C533.032 62.208 534.056 61.6 534.696 60.624V62H536.088V54H534.696ZM531.848 60.864C530.248 60.864 529.016 59.632 529.016 58C529.016 56.368 530.248 55.136 531.848 55.136C533.464 55.136 534.696 56.368 534.696 58C534.696 59.632 533.464 60.864 531.848 60.864ZM539.589 55.344V54H538.197V62H539.589V57.76C539.589 55.872 540.885 55.264 542.085 55.312V53.856C541.077 53.856 540.101 54.224 539.589 55.344ZM544.35 56.16C544.35 55.44 545.054 55.088 545.774 55.088C546.478 55.088 547.182 55.392 547.486 56.112L548.654 55.456C548.142 54.416 547.086 53.792 545.774 53.792C544.158 53.792 542.942 54.768 542.942 56.176C542.942 59.072 547.422 58.096 547.422 59.808C547.422 60.592 546.686 60.896 545.838 60.896C544.846 60.896 544.11 60.416 543.854 59.648L542.654 60.336C543.118 61.44 544.238 62.208 545.838 62.208C547.55 62.208 548.83 61.296 548.83 59.808C548.83 56.864 544.35 57.872 544.35 56.16Z" fill="#898989"/>
<g clip-path="url(#clip1_18_418)">
<path d="M771.899 43.7346V25.5198C771.899 24.87 771.372 24.3431 770.722 24.3431H739.197C738.547 24.3431 738.02 24.87 738.02 25.5198V45.1867C737.452 45.2694 736.898 45.4898 736.407 45.8542C734.859 46.9516 734.493 49.4073 735.789 50.9218L741.089 57.347C744.37 61.1866 747.855 61.657 753.036 61.657C757.482 61.657 759.47 61.6766 763.344 60.7937L767.117 59.8913C767.729 60.7456 768.7 61.299 769.792 61.299H771.651C773.498 61.299 775 59.7163 775 57.7708V47.2523C775 45.3947 773.63 43.8688 771.899 43.7346ZM766.61 46.1551L765.042 45.3588C762.464 44.0577 759.484 44.0095 756.865 45.2269C756.151 45.5079 754.593 46.4506 753.785 46.4191H748.344C746.54 46.4191 745.072 47.8872 745.072 49.6918V50.5499C745.062 50.5392 745.051 50.5291 745.041 50.5182L741.156 46.3013C740.921 46.0462 740.657 45.8326 740.373 45.6613V33.9874H750.003V38.3007C750.003 38.9505 750.53 39.4773 751.179 39.4773H758.604C759.254 39.4773 759.781 38.9505 759.781 38.3007V33.9874H769.545V43.7346C768.171 43.8408 767.024 44.8243 766.61 46.1551ZM752.356 33.9874H757.427V37.124H752.356V33.9874ZM769.545 31.634H759.781V26.6965H769.545V31.634H769.545ZM757.428 26.6965V31.6341H752.356V26.6965H757.428ZM750.003 26.6965V31.6341H740.373V26.6965H750.003ZM762.798 58.5046C759.219 59.3244 757.063 59.2912 753.078 59.2912C748.215 59.2912 745.865 59.2126 742.905 55.8494L737.605 49.4243C736.683 48.2238 738.353 46.8067 739.425 47.8957L743.31 52.1127C744.337 53.1961 745.629 53.7923 747.222 53.8274H757.993C758.642 53.8274 759.169 53.3006 759.169 52.6507C759.169 52.0009 758.642 51.4741 757.993 51.4741H747.425V49.6916C747.425 49.1847 747.837 48.7722 748.344 48.7722H753.785C755.01 48.86 756.779 47.8366 757.858 47.3607C759.819 46.4489 762.051 46.485 763.979 47.4581L766.443 48.7098V57.6326L762.798 58.5046ZM772.647 57.7707C772.647 58.4186 772.2 58.9456 771.651 58.9456H769.792C769.243 58.9456 768.796 58.4186 768.796 57.7707V47.2523C768.796 46.6044 769.243 46.0773 769.792 46.0773H771.651C772.2 46.0773 772.647 46.6044 772.647 47.2523V57.7707Z" fill="#3A3A3A"/>
</g>
<path d="M807.64 25.38V23.4H800.26V36H802.33V30.888H807.46V28.908H802.33V25.38H807.64ZM811.394 28.512V27H809.45V36H811.394V31.464C811.394 29.448 812.888 28.854 814.166 28.944V26.838C813.032 26.838 811.934 27.288 811.394 28.512ZM816.711 32.328H823.875C823.911 32.076 823.947 31.788 823.947 31.518C823.947 28.926 822.111 26.766 819.429 26.766C816.603 26.766 814.677 28.836 814.677 31.5C814.677 34.2 816.603 36.234 819.573 36.234C821.337 36.234 822.687 35.496 823.515 34.272L821.913 33.336C821.481 33.966 820.671 34.452 819.591 34.452C818.151 34.452 817.017 33.732 816.711 32.328ZM816.693 30.744C816.963 29.394 817.953 28.53 819.411 28.53C820.581 28.53 821.715 29.196 821.985 30.744H816.693ZM827.135 32.328H834.299C834.335 32.076 834.371 31.788 834.371 31.518C834.371 28.926 832.535 26.766 829.853 26.766C827.027 26.766 825.101 28.836 825.101 31.5C825.101 34.2 827.027 36.234 829.997 36.234C831.761 36.234 833.111 35.496 833.939 34.272L832.337 33.336C831.905 33.966 831.095 34.452 830.015 34.452C828.575 34.452 827.441 33.732 827.135 32.328ZM827.117 30.744C827.387 29.394 828.377 28.53 829.835 28.53C831.005 28.53 832.139 29.196 832.409 30.744H827.117ZM844.901 36.234C847.529 36.234 849.365 34.83 849.365 32.526C849.365 30.024 847.259 29.376 845.171 28.71C843.335 28.134 842.633 27.72 842.633 26.748C842.633 25.794 843.407 25.182 844.613 25.182C846.017 25.182 846.809 25.938 847.259 26.946L849.005 25.938C848.213 24.264 846.683 23.166 844.613 23.166C842.489 23.166 840.563 24.48 840.563 26.802C840.563 29.178 842.471 29.898 844.433 30.492C846.305 31.068 847.295 31.446 847.295 32.562C847.295 33.48 846.593 34.218 844.955 34.218C843.245 34.218 842.273 33.372 841.823 32.094L840.041 33.138C840.707 35.01 842.417 36.234 844.901 36.234ZM855.774 26.766C854.55 26.766 853.578 27.216 852.984 28.152V23.4H851.04V36H852.984V31.176C852.984 29.34 853.992 28.584 855.27 28.584C856.494 28.584 857.286 29.304 857.286 30.672V36H859.23V30.474C859.23 28.134 857.79 26.766 855.774 26.766ZM862.295 25.65C862.979 25.65 863.537 25.074 863.537 24.408C863.537 23.724 862.979 23.166 862.295 23.166C861.611 23.166 861.053 23.724 861.053 24.408C861.053 25.074 861.611 25.65 862.295 25.65ZM861.323 36H863.267V27H861.323V36ZM870.619 26.766C869.215 26.766 868.153 27.342 867.469 28.296V27H865.525V39.6H867.469V34.722C868.153 35.658 869.215 36.234 870.619 36.234C873.067 36.234 875.101 34.182 875.101 31.5C875.101 28.836 873.067 26.766 870.619 26.766ZM870.313 34.38C868.693 34.38 867.469 33.174 867.469 31.5C867.469 29.826 868.693 28.62 870.313 28.62C871.933 28.62 873.157 29.826 873.157 31.5C873.157 33.174 871.933 34.38 870.313 34.38ZM881.957 26.766C880.553 26.766 879.491 27.342 878.807 28.296V27H876.863V39.6H878.807V34.722C879.491 35.658 880.553 36.234 881.957 36.234C884.405 36.234 886.439 34.182 886.439 31.5C886.439 28.836 884.405 26.766 881.957 26.766ZM881.651 34.38C880.031 34.38 878.807 33.174 878.807 31.5C878.807 29.826 880.031 28.62 881.651 28.62C883.271 28.62 884.495 29.826 884.495 31.5C884.495 33.174 883.271 34.38 881.651 34.38ZM889.172 25.65C889.856 25.65 890.414 25.074 890.414 24.408C890.414 23.724 889.856 23.166 889.172 23.166C888.488 23.166 887.93 23.724 887.93 24.408C887.93 25.074 888.488 25.65 889.172 25.65ZM888.2 36H890.144V27H888.2V36ZM897.136 26.766C895.912 26.766 894.94 27.216 894.346 28.152V27H892.402V36H894.346V31.176C894.346 29.34 895.354 28.584 896.632 28.584C897.856 28.584 898.648 29.304 898.648 30.672V36H900.592V30.474C900.592 28.134 899.152 26.766 897.136 26.766ZM909.849 27V28.332C909.165 27.36 908.103 26.766 906.717 26.766C904.179 26.766 902.181 28.836 902.181 31.41C902.181 33.984 904.179 36.054 906.717 36.054C908.103 36.054 909.165 35.46 909.849 34.488V35.586C909.849 37.152 908.841 38.07 907.167 38.07C905.601 38.07 904.935 37.458 904.539 36.684L902.865 37.656C903.621 39.096 905.151 39.834 907.131 39.834C909.489 39.834 911.757 38.484 911.757 35.586V27H909.849ZM906.987 34.236C905.349 34.236 904.125 33.03 904.125 31.41C904.125 29.79 905.349 28.584 906.987 28.584C908.625 28.584 909.849 29.79 909.849 31.41C909.849 33.03 908.625 34.236 906.987 34.236Z" fill="#3A3A3A"/>
<path d="M805.4 62.208C808.648 62.208 811.208 59.616 811.208 56.4C811.208 53.168 808.648 50.592 805.4 50.592C802.152 50.592 799.608 53.168 799.608 56.4C799.608 59.616 802.152 62.208 805.4 62.208ZM805.4 60.752C802.952 60.752 801.08 58.848 801.08 56.4C801.08 53.936 802.952 52.032 805.4 52.032C807.848 52.032 809.72 53.936 809.72 56.4C809.72 58.848 807.848 60.752 805.4 60.752ZM814.245 55.344V54H812.853V62H814.245V57.76C814.245 55.872 815.541 55.264 816.741 55.312V53.856C815.733 53.856 814.757 54.224 814.245 55.344ZM824.289 50.8V55.376C823.649 54.4 822.625 53.792 821.265 53.792C819.041 53.792 817.217 55.632 817.217 58C817.217 60.368 819.041 62.208 821.265 62.208C822.625 62.208 823.649 61.6 824.289 60.624V62H825.681V50.8H824.289ZM821.441 60.864C819.841 60.864 818.609 59.632 818.609 58C818.609 56.368 819.841 55.136 821.441 55.136C823.057 55.136 824.289 56.368 824.289 58C824.289 59.632 823.057 60.864 821.441 60.864ZM828.766 58.64H835.47C835.502 58.432 835.518 58.224 835.518 58.016C835.518 55.776 833.95 53.792 831.534 53.792C829.038 53.792 827.342 55.632 827.342 58C827.342 60.4 829.054 62.208 831.63 62.208C833.23 62.208 834.446 61.488 835.15 60.4L833.966 59.728C833.566 60.384 832.766 60.896 831.662 60.896C830.174 60.896 829.038 60.08 828.766 58.64ZM831.534 55.104C832.734 55.104 833.87 55.84 834.11 57.424H828.766C828.99 56.032 830.03 55.104 831.534 55.104ZM838.511 55.344V54H837.118V62H838.511V57.76C838.511 55.872 839.807 55.264 841.007 55.312V53.856C839.999 53.856 839.023 54.224 838.511 55.344ZM850.129 62.208C852.465 62.208 854.352 60.368 854.352 58C854.352 55.632 852.465 53.792 850.129 53.792C847.793 53.792 845.921 55.632 845.921 58C845.921 60.368 847.793 62.208 850.129 62.208ZM850.129 60.848C848.545 60.848 847.312 59.616 847.312 58C847.312 56.384 848.545 55.152 850.129 55.152C851.729 55.152 852.961 56.384 852.961 58C852.961 59.616 851.729 60.848 850.129 60.848ZM861.281 54L858.769 60.512L856.257 54H854.753L857.953 62H859.585L862.785 54H861.281ZM864.626 58.64H871.33C871.362 58.432 871.378 58.224 871.378 58.016C871.378 55.776 869.81 53.792 867.394 53.792C864.898 53.792 863.202 55.632 863.202 58C863.202 60.4 864.914 62.208 867.49 62.208C869.09 62.208 870.306 61.488 871.01 60.4L869.826 59.728C869.426 60.384 868.626 60.896 867.522 60.896C866.034 60.896 864.898 60.08 864.626 58.64ZM867.394 55.104C868.594 55.104 869.73 55.84 869.97 57.424H864.626C864.85 56.032 865.89 55.104 867.394 55.104ZM874.37 55.344V54H872.978V62H874.37V57.76C874.37 55.872 875.666 55.264 876.866 55.312V53.856C875.858 53.856 874.882 54.224 874.37 55.344ZM884.34 50.8L881.396 51.824L881.764 53.104L884.148 52.4V62H885.62V50.8H884.34ZM891.195 55.168H889.563L889.755 52.192H894.539V50.8H888.411L887.995 56.608H891.163C892.491 56.608 893.499 57.344 893.499 58.688C893.499 60.016 892.491 60.752 891.131 60.752C889.915 60.752 889.003 60.192 888.699 59.088L887.435 59.808C887.979 61.408 889.483 62.208 891.131 62.208C893.147 62.208 894.971 60.96 894.971 58.688C894.971 56.4 893.195 55.168 891.195 55.168ZM900.462 62.208C903.246 62.208 904.782 59.856 904.782 56.4C904.782 52.944 903.246 50.592 900.462 50.592C897.694 50.592 896.142 52.944 896.142 56.4C896.142 59.856 897.694 62.208 900.462 62.208ZM900.462 60.752C898.654 60.752 897.63 59.184 897.63 56.4C897.63 53.616 898.654 52.032 900.462 52.032C902.27 52.032 903.31 53.616 903.31 56.4C903.31 59.184 902.27 60.752 900.462 60.752ZM917.74 59.008C917.74 56.976 916.204 56.336 914.636 55.76V52.08C915.388 52.224 915.948 52.672 916.268 53.472L917.516 52.768C916.956 51.488 915.884 50.784 914.636 50.624V49.2H913.628V50.608C911.98 50.768 910.604 51.872 910.604 53.664C910.604 55.648 912.044 56.288 913.628 56.864V60.736C912.444 60.608 911.692 60.016 911.34 59.056L910.06 59.792C910.604 61.2 911.884 62.064 913.628 62.192V63.6H914.636V62.176C916.428 61.968 917.74 60.784 917.74 59.008ZM912.076 53.664C912.076 52.784 912.7 52.192 913.628 52.064V55.376C912.604 54.944 912.076 54.512 912.076 53.664ZM914.636 60.704V57.232C915.628 57.648 916.252 58.08 916.252 59.024C916.252 59.888 915.676 60.544 914.636 60.704Z" fill="#898989"/>
<g clip-path="url(#clip2_18_418)">
<path d="M1069.46 37.9752C1069.2 29.1216 1061.92 22 1053 22C1044.08 22 1036.8 29.1216 1036.54 37.9752L1035.35 39.1598V47.1932L1036.53 48.3696V53.8431C1036.53 57.0435 1039.13 59.6471 1042.33 59.6471H1043.79C1044.28 61.0164 1045.58 62 1047.12 62H1049.47C1051.01 62 1052.31 61.015 1052.8 59.6442C1052.87 59.6454 1052.93 59.6471 1053 59.6471C1058.68 59.6471 1063.44 55.5987 1064.53 50.2353H1067.6L1070.65 47.1932V39.1598L1069.46 37.9752ZM1053 24.3529C1059.98 24.3529 1065.8 29.4493 1066.92 36.1176H1064.53C1063.44 30.7542 1058.68 26.7059 1053 26.7059C1047.32 26.7059 1042.56 30.7542 1041.47 36.1176H1039.08C1040.2 29.4493 1046.02 24.3529 1053 24.3529ZM1062.11 36.1176C1058.31 36.1063 1055.62 36.3379 1053.41 33.1004L1052.33 31.5284L1051.41 33.1938C1050.06 35.6204 1048.25 36.1176 1045.94 36.1176H1043.89C1044.93 32.0629 1048.62 29.0588 1053 29.0588C1057.38 29.0588 1061.07 32.0629 1062.11 36.1176ZM1041.24 47.8824H1039.37L1037.71 46.2186V40.1344L1039.37 38.4706H1041.24V47.8824ZM1038.88 53.8431V50.2353H1041.47C1041.91 52.4294 1042.97 54.4435 1044.54 56.0611C1044.21 56.4127 1043.95 56.8311 1043.79 57.2941H1042.33C1040.43 57.2941 1038.88 55.746 1038.88 53.8431ZM1049.47 59.6471H1047.12C1046.47 59.6471 1045.94 59.1194 1045.94 58.4706C1045.94 57.8219 1046.47 57.2941 1047.12 57.2941H1049.47C1050.12 57.2941 1050.65 57.8219 1050.65 58.4706C1050.65 59.1194 1050.12 59.6471 1049.47 59.6471ZM1062.41 47.8824C1062.41 53.072 1058.19 57.2941 1053 57.2941C1052.93 57.2941 1052.86 57.2928 1052.8 57.2912C1052.31 55.9234 1051 54.9412 1049.47 54.9412C1047.05 54.9465 1047.09 54.9291 1046.79 54.9568C1044.75 53.1665 1043.59 50.6166 1043.59 47.8824V38.4706H1045.94C1048.02 38.4706 1050.56 38.1273 1052.52 35.7384C1055.11 38.4524 1058.28 38.4706 1061.12 38.4706H1062.41V47.8824ZM1068.29 46.2186L1066.63 47.8824H1064.76V38.4706H1066.63L1068.29 40.1344V46.2186Z" fill="#3A3A3A"/>
</g>
<path d="M1097.56 36H1105.86V34.002H1100.64L1103.48 31.158C1104.69 29.934 1105.62 28.62 1105.62 27.054C1105.62 24.552 1103.66 23.166 1101.59 23.166C1099.92 23.166 1098.33 23.994 1097.52 25.722L1099.27 26.748C1099.75 25.74 1100.56 25.182 1101.61 25.182C1102.69 25.182 1103.55 25.866 1103.55 27.126C1103.55 28.08 1102.85 28.998 1101.95 29.898L1097.56 34.38V36ZM1116.4 31.806H1114.96V28.53H1112.87V31.806H1108.93L1113.27 23.4H1111.02L1106.68 31.806V33.732H1112.87V36H1114.96V33.732H1116.4V31.806ZM1122.83 37.8L1130.03 21.6H1129.04L1121.84 37.8H1122.83ZM1135.43 23.4V25.38H1141.19L1136.84 36H1139.01L1143.44 25.2V23.4H1135.43ZM1153.94 36.234C1156.57 36.234 1158.4 34.83 1158.4 32.526C1158.4 30.024 1156.3 29.376 1154.21 28.71C1152.37 28.134 1151.67 27.72 1151.67 26.748C1151.67 25.794 1152.45 25.182 1153.65 25.182C1155.06 25.182 1155.85 25.938 1156.3 26.946L1158.04 25.938C1157.25 24.264 1155.72 23.166 1153.65 23.166C1151.53 23.166 1149.6 24.48 1149.6 26.802C1149.6 29.178 1151.51 29.898 1153.47 30.492C1155.34 31.068 1156.33 31.446 1156.33 32.562C1156.33 33.48 1155.63 34.218 1153.99 34.218C1152.28 34.218 1151.31 33.372 1150.86 32.094L1149.08 33.138C1149.75 35.01 1151.46 36.234 1153.94 36.234ZM1166.15 27V31.824C1166.15 33.66 1165.14 34.416 1163.86 34.416C1162.64 34.416 1161.84 33.696 1161.84 32.328V27H1159.9V32.526C1159.9 34.866 1161.34 36.234 1163.36 36.234C1164.58 36.234 1165.55 35.784 1166.15 34.848V36H1168.09V27H1166.15ZM1175.46 26.766C1174.05 26.766 1172.99 27.342 1172.31 28.296V27H1170.36V39.6H1172.31V34.722C1172.99 35.658 1174.05 36.234 1175.46 36.234C1177.9 36.234 1179.94 34.182 1179.94 31.5C1179.94 28.836 1177.9 26.766 1175.46 26.766ZM1175.15 34.38C1173.53 34.38 1172.31 33.174 1172.31 31.5C1172.31 29.826 1173.53 28.62 1175.15 28.62C1176.77 28.62 1177.99 29.826 1177.99 31.5C1177.99 33.174 1176.77 34.38 1175.15 34.38ZM1186.79 26.766C1185.39 26.766 1184.33 27.342 1183.64 28.296V27H1181.7V39.6H1183.64V34.722C1184.33 35.658 1185.39 36.234 1186.79 36.234C1189.24 36.234 1191.28 34.182 1191.28 31.5C1191.28 28.836 1189.24 26.766 1186.79 26.766ZM1186.49 34.38C1184.87 34.38 1183.64 33.174 1183.64 31.5C1183.64 29.826 1184.87 28.62 1186.49 28.62C1188.11 28.62 1189.33 29.826 1189.33 31.5C1189.33 33.174 1188.11 34.38 1186.49 34.38ZM1197.29 36.234C1199.93 36.234 1202.04 34.164 1202.04 31.5C1202.04 28.818 1199.93 26.766 1197.29 26.766C1194.66 26.766 1192.53 28.818 1192.53 31.5C1192.53 34.164 1194.66 36.234 1197.29 36.234ZM1197.29 34.344C1195.7 34.344 1194.48 33.138 1194.48 31.5C1194.48 29.862 1195.7 28.656 1197.29 28.656C1198.87 28.656 1200.09 29.862 1200.09 31.5C1200.09 33.138 1198.87 34.344 1197.29 34.344ZM1205.74 28.512V27H1203.8V36H1205.74V31.464C1205.74 29.448 1207.23 28.854 1208.51 28.944V26.838C1207.38 26.838 1206.28 27.288 1205.74 28.512ZM1215.2 28.872V27H1212.97V24.48L1211.02 25.056V27H1209.37V28.872H1211.02V33.192C1211.02 35.532 1212.21 36.36 1215.2 36V34.254C1213.72 34.326 1212.97 34.344 1212.97 33.192V28.872H1215.2Z" fill="#3A3A3A"/>
<path d="M1102.57 50.8H1098.2V62H1102.57C1105.66 62 1107.88 59.504 1107.88 56.4C1107.88 53.296 1105.66 50.8 1102.57 50.8ZM1102.57 60.592H1099.69V52.208H1102.57C1104.87 52.208 1106.46 54.032 1106.46 56.4C1106.46 58.768 1104.87 60.592 1102.57 60.592ZM1110.52 58.64H1117.22C1117.25 58.432 1117.27 58.224 1117.27 58.016C1117.27 55.776 1115.7 53.792 1113.28 53.792C1110.79 53.792 1109.09 55.632 1109.09 58C1109.09 60.4 1110.8 62.208 1113.38 62.208C1114.98 62.208 1116.2 61.488 1116.9 60.4L1115.72 59.728C1115.32 60.384 1114.52 60.896 1113.41 60.896C1111.92 60.896 1110.79 60.08 1110.52 58.64ZM1113.28 55.104C1114.48 55.104 1115.62 55.84 1115.86 57.424H1110.52C1110.74 56.032 1111.78 55.104 1113.28 55.104ZM1125.48 50.8V55.376C1124.84 54.4 1123.81 53.792 1122.45 53.792C1120.23 53.792 1118.4 55.632 1118.4 58C1118.4 60.368 1120.23 62.208 1122.45 62.208C1123.81 62.208 1124.84 61.6 1125.48 60.624V62H1126.87V50.8H1125.48ZM1122.63 60.864C1121.03 60.864 1119.8 59.632 1119.8 58C1119.8 56.368 1121.03 55.136 1122.63 55.136C1124.24 55.136 1125.48 56.368 1125.48 58C1125.48 59.632 1124.24 60.864 1122.63 60.864ZM1129.68 52.544C1130.19 52.544 1130.61 52.128 1130.61 51.616C1130.61 51.104 1130.19 50.672 1129.68 50.672C1129.15 50.672 1128.74 51.104 1128.74 51.616C1128.74 52.128 1129.15 52.544 1129.68 52.544ZM1128.98 62H1130.37V54H1128.98V62ZM1136.25 62.208C1137.82 62.208 1139.18 61.376 1139.85 60.128L1138.67 59.44C1138.22 60.272 1137.34 60.832 1136.25 60.832C1134.65 60.832 1133.44 59.6 1133.44 58C1133.44 56.384 1134.65 55.152 1136.25 55.152C1137.33 55.152 1138.22 55.712 1138.62 56.56L1139.79 55.888C1139.18 54.624 1137.84 53.792 1136.25 53.792C1133.84 53.792 1132.05 55.632 1132.05 58C1132.05 60.368 1133.84 62.208 1136.25 62.208ZM1147.74 54V55.376C1147.1 54.4 1146.08 53.792 1144.72 53.792C1142.49 53.792 1140.67 55.632 1140.67 58C1140.67 60.368 1142.49 62.208 1144.72 62.208C1146.08 62.208 1147.1 61.6 1147.74 60.624V62H1149.13V54H1147.74ZM1144.89 60.864C1143.29 60.864 1142.06 59.632 1142.06 58C1142.06 56.368 1143.29 55.136 1144.89 55.136C1146.51 55.136 1147.74 56.368 1147.74 58C1147.74 59.632 1146.51 60.864 1144.89 60.864ZM1155.6 55.344V54H1153.47V51.76L1152.08 52.176V54H1150.49V55.344H1152.08V59.68C1152.08 61.68 1153.2 62.32 1155.6 62V60.752C1154.17 60.816 1153.47 60.896 1153.47 59.68V55.344H1155.6ZM1157.81 58.64H1164.52C1164.55 58.432 1164.57 58.224 1164.57 58.016C1164.57 55.776 1163 53.792 1160.58 53.792C1158.09 53.792 1156.39 55.632 1156.39 58C1156.39 60.4 1158.1 62.208 1160.68 62.208C1162.28 62.208 1163.49 61.488 1164.2 60.4L1163.01 59.728C1162.61 60.384 1161.81 60.896 1160.71 60.896C1159.22 60.896 1158.09 60.08 1157.81 58.64ZM1160.58 55.104C1161.78 55.104 1162.92 55.84 1163.16 57.424H1157.81C1158.04 56.032 1159.08 55.104 1160.58 55.104ZM1172.77 50.8V55.376C1172.13 54.4 1171.11 53.792 1169.75 53.792C1167.53 53.792 1165.7 55.632 1165.7 58C1165.7 60.368 1167.53 62.208 1169.75 62.208C1171.11 62.208 1172.13 61.6 1172.77 60.624V62H1174.17V50.8H1172.77ZM1169.93 60.864C1168.33 60.864 1167.09 59.632 1167.09 58C1167.09 56.368 1168.33 55.136 1169.93 55.136C1171.54 55.136 1172.77 56.368 1172.77 58C1172.77 59.632 1171.54 60.864 1169.93 60.864ZM1181.47 56.16C1181.47 55.44 1182.18 55.088 1182.9 55.088C1183.6 55.088 1184.31 55.392 1184.61 56.112L1185.78 55.456C1185.27 54.416 1184.21 53.792 1182.9 53.792C1181.28 53.792 1180.07 54.768 1180.07 56.176C1180.07 59.072 1184.55 58.096 1184.55 59.808C1184.55 60.592 1183.81 60.896 1182.96 60.896C1181.97 60.896 1181.23 60.416 1180.98 59.648L1179.78 60.336C1180.24 61.44 1181.36 62.208 1182.96 62.208C1184.67 62.208 1185.95 61.296 1185.95 59.808C1185.95 56.864 1181.47 57.872 1181.47 56.16ZM1193.04 54V58.24C1193.04 60.128 1192 60.88 1190.72 60.88C1189.49 60.88 1188.74 60.144 1188.74 58.832V54H1187.35V58.912C1187.35 60.96 1188.58 62.208 1190.45 62.208C1191.57 62.208 1192.45 61.792 1193.04 60.848V62H1194.44V54H1193.04ZM1200.97 53.792C1199.61 53.792 1198.59 54.4 1197.95 55.376V54H1196.56V65.2H1197.95V60.624C1198.59 61.6 1199.61 62.208 1200.97 62.208C1203.2 62.208 1205.02 60.368 1205.02 58C1205.02 55.632 1203.2 53.792 1200.97 53.792ZM1200.8 60.864C1199.18 60.864 1197.95 59.632 1197.95 58C1197.95 56.368 1199.18 55.136 1200.8 55.136C1202.4 55.136 1203.63 56.368 1203.63 58C1203.63 59.632 1202.4 60.864 1200.8 60.864ZM1211.1 53.792C1209.74 53.792 1208.71 54.4 1208.07 55.376V54H1206.68V65.2H1208.07V60.624C1208.71 61.6 1209.74 62.208 1211.1 62.208C1213.32 62.208 1215.15 60.368 1215.15 58C1215.15 55.632 1213.32 53.792 1211.1 53.792ZM1210.92 60.864C1209.31 60.864 1208.07 59.632 1208.07 58C1208.07 56.368 1209.31 55.136 1210.92 55.136C1212.52 55.136 1213.75 56.368 1213.75 58C1213.75 59.632 1212.52 60.864 1210.92 60.864ZM1220.57 62.208C1222.9 62.208 1224.79 60.368 1224.79 58C1224.79 55.632 1222.9 53.792 1220.57 53.792C1218.23 53.792 1216.36 55.632 1216.36 58C1216.36 60.368 1218.23 62.208 1220.57 62.208ZM1220.57 60.848C1218.98 60.848 1217.75 59.616 1217.75 58C1217.75 56.384 1218.98 55.152 1220.57 55.152C1222.17 55.152 1223.4 56.384 1223.4 58C1223.4 59.616 1222.17 60.848 1220.57 60.848ZM1227.82 55.344V54H1226.43V62H1227.82V57.76C1227.82 55.872 1229.12 55.264 1230.32 55.312V53.856C1229.31 53.856 1228.34 54.224 1227.82 55.344ZM1236.22 55.344V54H1234.09V51.76L1232.7 52.176V54H1231.12V55.344H1232.7V59.68C1232.7 61.68 1233.82 62.32 1236.22 62V60.752C1234.8 60.816 1234.09 60.896 1234.09 59.68V55.344H1236.22Z" fill="#898989"/>
<defs>
<clipPath id="clip0_18_418">
<rect width="40" height="40" fill="white" transform="translate(394 22)"/>
</clipPath>
<clipPath id="clip1_18_418">
<rect width="40" height="40" fill="white" transform="translate(735 23)"/>
</clipPath>
<clipPath id="clip2_18_418">
<rect width="40" height="40" fill="white" transform="translate(1033 22)"/>
</clipPath>
</defs>
</svg>
